<svg version="1.1" class="logo-svg" xmlns="http://www.w3.org/2000/svg" xmlns:xlink="http://www.w3.org/1999/xlink" x="0px" y="0px" viewBox="0 0 298.95 101.71" style="enable-background:new 0 0 298.95 101.71;" xml:space="preserve">
<style type="text/css">
	.logo0{fill-rule:evenodd;clip-rule:evenodd;fill:#AFA08D;}
	.logo1{fill-rule:evenodd;clip-rule:evenodd;fill:#AF2139;}
	.logo2{fill-rule:evenodd;clip-rule:evenodd;fill:#629CA9;}
	.logo3{fill-rule:evenodd;clip-rule:evenodd;fill:#1D4A69;}
	.logo4{fill:#FFFFFF;}
</style>
<g>
	<polygon class="logo0 star" points="89.94,42.24 63.31,42.29 61.06,35.12 55.44,17.29 60.79,0.26 70.81,32.08 103.5,32.02 	"></polygon>
	<polygon class="logo1 star" points="18.05,41.98 44.67,42.03 46.93,34.86 52.54,17.02 47.19,0 37.17,31.82 4.48,31.76 	"></polygon>
	<polygon class="logo1 star" points="76.86,84.25 68.76,58.89 74.91,54.57 90.21,43.83 108.06,43.79 80.76,62.95 90.7,94.1 	"></polygon>
	<polygon class="logo2 star" points="31.2,83.55 39.3,58.19 33.15,53.87 17.85,43.13 0,43.09 27.3,62.25 17.36,93.4 	"></polygon>
	<polygon class="logo3 star" points="75.36,84.85 53.84,69.17 47.81,73.65 32.79,84.78 27.12,101.71 53.92,81.84 80.34,101.09 	"></polygon>
</g>
<g>
	<g>
		<path class="logo4" d="M152.24,67.16l-2.57-5.75h-13.98l-2.54,5.75h-1.94l10.5-23.41h1.97l10.5,23.41H152.24z M148.97,59.74
			l-6.29-14.24l-6.29,14.24H148.97z"></path>
		<path class="logo4" d="M168.2,53.65c-1.67-1.47-3.31-1.74-5.15-1.74c-2.57-0.03-5.05,0.94-4.98,3.04c0.07,2.21,2.94,2.64,5.02,3.01
			c2.94,0.5,6.99,1,6.82,4.85c-0.1,3.64-3.88,4.61-6.79,4.61c-2.91,0-5.78-1.1-7.22-3.31l1.2-1.07c1.37,1.97,3.85,2.81,6.05,2.81
			c2.01,0,5.05-0.54,5.15-3.14c0.07-2.37-2.67-2.84-5.38-3.28c-3.21-0.54-6.39-1.14-6.42-4.45c-0.03-3.24,3.21-4.65,6.55-4.61
			c2.41,0,4.51,0.67,6.15,2.21L168.2,53.65z"></path>
		<path class="logo4" d="M184.88,53.65c-1.67-1.47-3.31-1.74-5.15-1.74c-2.57-0.03-5.05,0.94-4.98,3.04c0.07,2.21,2.94,2.64,5.01,3.01
			c2.94,0.5,6.99,1,6.82,4.85c-0.1,3.64-3.88,4.61-6.79,4.61c-2.91,0-5.78-1.1-7.22-3.31l1.2-1.07c1.37,1.97,3.84,2.81,6.05,2.81
			c2.01,0,5.05-0.54,5.15-3.14c0.07-2.37-2.68-2.84-5.38-3.28c-3.21-0.54-6.39-1.14-6.42-4.45c-0.03-3.24,3.21-4.65,6.55-4.61
			c2.41,0,4.51,0.67,6.15,2.21L184.88,53.65z"></path>
		<path class="logo4" d="M189.47,58.93c0-5.25,3.74-8.59,8.39-8.59c4.65,0,8.39,3.34,8.39,8.59c0,5.25-3.74,8.46-8.39,8.46
			C193.21,67.39,189.47,64.18,189.47,58.93z M204.65,58.93c0-4.28-3.04-7.06-6.79-7.06c-3.74,0-6.79,2.78-6.79,7.06
			s3.04,6.85,6.79,6.85C201.6,65.79,204.65,63.21,204.65,58.93z"></path>
		<path class="logo4" d="M223.57,64.85c-1.67,1.67-3.85,2.47-6.02,2.47c-4.65,0-8.49-3.21-8.49-8.43s3.71-8.43,8.49-8.43
			c2.17,0,4.35,0.84,6.02,2.47l-1.07,1.04c-1.34-1.34-3.18-1.97-4.95-1.97c-3.75,0-6.89,2.44-6.89,6.89c0,4.45,3.14,6.89,6.89,6.89
			c1.77,0,3.58-0.7,4.91-2.04L223.57,64.85z"></path>
		<path class="logo4" d="M229.09,45.26c0,1.74-2.64,1.74-2.64,0S229.09,43.52,229.09,45.26z M226.92,50.57v16.58h1.64V50.57H226.92z"></path>
		<path class="logo4" d="M249.12,50.64c0,5.52,0,11,0,16.52h-1.64v-3.51c-1.61,2.57-4.08,3.78-6.75,3.78c-4.61,0-8.39-3.48-8.39-8.53
			s3.78-8.46,8.39-8.46c2.68,0,5.38,1.24,6.75,3.81v-3.61H249.12z M233.98,58.9c0,4.15,3.01,6.92,6.75,6.92c9.2,0,9.2-13.81,0-13.81
			C236.98,52.01,233.98,54.75,233.98,58.9z"></path>
		<path class="logo4" d="M256.65,45.66v4.98h5.62v1.37h-5.62v10.06c0,2.24,0.47,3.81,3.04,3.81c0.8,0,1.71-0.27,2.54-0.67l0.57,1.34
			c-1.04,0.5-2.07,0.84-3.11,0.84c-3.51,0-4.65-2.07-4.65-5.32V52.01h-3.51v-1.37h3.51v-4.81L256.65,45.66z"></path>
		<path class="logo4" d="M265.11,58.9c0-4.95,3.75-8.53,8.39-8.53c4.65,0,8.79,2.84,8.16,9.3h-14.88c0.33,3.88,3.31,6.12,6.72,6.12
			c2.17,0,4.71-0.87,5.95-2.51l1.17,0.94c-1.6,2.11-4.48,3.18-7.12,3.18C268.85,67.39,265.11,64.15,265.11,58.9z M280.19,58.23
			c-0.03-4.08-2.71-6.35-6.69-6.35c-3.41,0-6.35,2.31-6.72,6.35H280.19z"></path>
		<path class="logo4" d="M297.24,53.65c-1.67-1.47-3.31-1.74-5.15-1.74c-2.57-0.03-5.05,0.94-4.98,3.04c0.07,2.21,2.94,2.64,5.02,3.01
			c2.94,0.5,6.99,1,6.82,4.85c-0.1,3.64-3.88,4.61-6.79,4.61c-2.91,0-5.78-1.1-7.22-3.31l1.2-1.07c1.37,1.97,3.84,2.81,6.05,2.81
			c2.01,0,5.05-0.54,5.15-3.14c0.07-2.37-2.68-2.84-5.38-3.28c-3.21-0.54-6.39-1.14-6.42-4.45c-0.03-3.24,3.21-4.65,6.55-4.61
			c2.41,0,4.51,0.67,6.15,2.21L297.24,53.65z"></path>
	</g>
	<g>
		<path class="logo4" d="M131.21,84.25c0-2.78,1.98-4.55,4.44-4.55s4.44,1.77,4.44,4.55c0,2.78-1.98,4.47-4.44,4.47
			S131.21,87.02,131.21,84.25z M139.24,84.25c0-2.26-1.61-3.73-3.59-3.73c-1.98,0-3.59,1.47-3.59,3.73c0,2.26,1.61,3.63,3.59,3.63
			C137.63,87.87,139.24,86.51,139.24,84.25z"></path>
		<path class="logo4" d="M142.99,88.6v-7.91h-1.79v-0.76h1.79v-0.78c0-1.73,0.69-2.99,2.62-2.99c0.65,0,1.24,0.23,1.73,0.6l-0.42,0.64
			c-0.48-0.28-0.81-0.44-1.34-0.44c-1.1,0-1.73,0.67-1.73,2.19v0.78h2.88v0.76h-2.88v7.91H142.99z"></path>
		<path class="logo4" d="M157.3,77.08h-4.47v-0.85h9.9v0.85h-4.48V88.6h-0.95V77.08z"></path>
		<path class="logo4" d="M161.5,84.23c0-2.62,1.98-4.51,4.44-4.51c2.46,0,4.65,1.5,4.32,4.92h-7.87c0.18,2.05,1.75,3.24,3.56,3.24
			c1.15,0,2.49-0.46,3.15-1.33l0.62,0.5c-0.85,1.11-2.37,1.68-3.77,1.68C163.48,88.72,161.5,87,161.5,84.23z M169.47,83.87
			c-0.02-2.16-1.43-3.36-3.54-3.36c-1.8,0-3.36,1.22-3.56,3.36H169.47z"></path>
		<path class="logo4" d="M175.4,83.43l2.6-3.57h1.04v0.04l-3.13,4.17l3.38,4.49v0.04h-1.03l-2.87-3.91l-2.87,3.91h-1.03v-0.04
			l3.38-4.49l-3.13-4.17v-0.04h1.04L175.4,83.43z"></path>
		<path class="logo4" d="M189.32,79.86c0,2.92,0,5.82,0,8.74h-0.87v-1.86c-0.85,1.36-2.16,2-3.57,2c-2.44,0-4.44-1.84-4.44-4.51
			c0-2.67,2-4.47,4.44-4.47c1.42,0,2.85,0.65,3.57,2.02v-1.91H189.32z M181.31,84.23c0,2.19,1.59,3.66,3.57,3.66
			c4.86,0,4.86-7.3,0-7.3C182.9,80.58,181.31,82.03,181.31,84.23z"></path>
		<path class="logo4" d="M197.67,81.45c-0.88-0.78-1.75-0.92-2.72-0.92c-1.36-0.02-2.67,0.5-2.64,1.61c0.04,1.17,1.56,1.4,2.65,1.59
			c1.56,0.27,3.7,0.53,3.61,2.56c-0.05,1.93-2.05,2.44-3.59,2.44c-1.54,0-3.06-0.58-3.82-1.75l0.64-0.57
			c0.72,1.04,2.03,1.49,3.2,1.49c1.06,0,2.67-0.28,2.72-1.66c0.04-1.26-1.42-1.5-2.85-1.73c-1.7-0.28-3.38-0.6-3.4-2.35
			c-0.02-1.72,1.7-2.46,3.47-2.44c1.27,0,2.39,0.35,3.25,1.17L197.67,81.45z"></path>
	</g>
	<g>
		<path class="logo4" d="M146.75,35.86v-9.24h-11.23v9.24h-4.31V13h4.31v9.63h11.23V13h4.28v22.85H146.75z"></path>
		<path class="logo4" d="M158.18,29.2c0.26,1.99,1.99,3.43,4.8,3.43c1.47,0,3.4-0.56,4.31-1.5l2.55,2.51
			c-1.7,1.76-4.47,2.61-6.92,2.61c-5.55,0-8.85-3.43-8.85-8.59c0-4.9,3.33-8.42,8.55-8.42c5.39,0,8.75,3.33,8.13,9.96H158.18z
			 M166.93,25.9c-0.26-2.09-1.89-3.13-4.18-3.13c-2.15,0-3.92,1.05-4.51,3.13H166.93z"></path>
		<path class="logo4" d="M186.59,19.73h3.82v16.1h-3.75l-0.2-2.35c-0.91,1.89-3.43,2.81-5.22,2.84c-4.77,0.03-8.29-2.91-8.29-8.55
			c0-5.55,3.69-8.46,8.39-8.42c2.16,0,4.21,1.01,5.13,2.61L186.59,19.73z M176.93,27.76c0,3.07,2.12,4.9,4.77,4.9
			c6.27,0,6.27-9.76,0-9.76C179.05,22.89,176.93,24.69,176.93,27.76z"></path>
		<path class="logo4" d="M197.73,13v22.82h-3.95V13H197.73z"></path>
		<path class="logo4" d="M206.84,15.19v4.57h4.44v3.43h-4.47v6.95c0,1.53,0.85,2.29,2.09,2.29c0.62,0,1.34-0.2,1.93-0.49l1.11,3.4
			c-1.14,0.46-2.09,0.65-3.3,0.69c-3.49,0.13-5.78-1.86-5.78-5.88v-6.95h-3v-3.43h3v-4.15L206.84,15.19z"></path>
		<path class="logo4" d="M218.23,12.97v8.95c1.44-1.86,3.2-2.42,5.03-2.42c4.57,0,6.59,3.1,6.59,7.84v8.49h-3.98v-8.46
			c0-2.94-1.53-4.18-3.66-4.18c-2.35,0-3.98,1.99-3.98,4.41v8.23h-3.98V12.97H218.23z"></path>
		<path class="logo4" d="M247.03,33.77c-1.86,1.83-3.82,2.55-6.2,2.55c-4.67,0-8.55-2.81-8.55-8.52s3.88-8.52,8.55-8.52
			c2.29,0,4.05,0.65,5.81,2.38l-2.51,2.64c-0.95-0.85-2.12-1.27-3.23-1.27c-2.68,0-4.64,1.96-4.64,4.77c0,3.07,2.09,4.7,4.57,4.7
			c1.27,0,2.55-0.36,3.53-1.34L247.03,33.77z"></path>
		<path class="logo4" d="M261.56,19.73h3.82v16.1h-3.75l-0.2-2.35c-0.91,1.89-3.43,2.81-5.22,2.84c-4.77,0.03-8.29-2.91-8.29-8.55
			c0-5.55,3.69-8.46,8.39-8.42c2.16,0,4.21,1.01,5.13,2.61L261.56,19.73z M251.9,27.76c0,3.07,2.12,4.9,4.77,4.9
			c6.27,0,6.27-9.76,0-9.76C254.02,22.89,251.9,24.69,251.9,27.76z"></path>
		<path class="logo4" d="M272.43,19.73l0.29,1.86c1.24-1.99,2.91-2.29,4.54-2.29c1.66,0,3.26,0.65,4.15,1.53l-1.8,3.46
			c-0.82-0.69-1.57-1.04-2.87-1.04c-2.09,0-4.02,1.11-4.02,4.08v8.49h-3.98v-16.1H272.43z"></path>
		<path class="logo4" d="M286.31,29.2c0.26,1.99,1.99,3.43,4.8,3.43c1.47,0,3.4-0.56,4.31-1.5l2.55,2.51
			c-1.7,1.76-4.47,2.61-6.92,2.61c-5.55,0-8.85-3.43-8.85-8.59c0-4.9,3.33-8.42,8.55-8.42c5.39,0,8.75,3.33,8.13,9.96H286.31z
			 M295.06,25.9c-0.26-2.09-1.89-3.13-4.18-3.13c-2.16,0-3.92,1.05-4.51,3.13H295.06z"></path>
	</g>
</g>
</svg>